<?xml version="1.0" encoding="UTF-8"?>
<svg xmlns="http://www.w3.org/2000/svg" xmlns:xlink="http://www.w3.org/1999/xlink" width="76pt" height="59pt" viewBox="0 0 76 59" version="1.1">
<g id="surface1">
<path style=" stroke:none;fill-rule:nonzero;fill:rgb(84.298706%,9.799194%,12.5%);fill-opacity:1;" d="M 21.539063 33.472656 L 19.539063 33.472656 L 19.539063 30.601563 C 19.539063 30.199219 19.425781 29.867188 19.191406 29.605469 C 18.957031 29.34375 18.605469 29.21875 18.128906 29.226563 C 17.820313 29.226563 17.515625 29.328125 17.210938 29.527344 C 16.90625 29.726563 16.757813 30.0625 16.765625 30.527344 C 16.765625 31.003906 16.910156 31.339844 17.199219 31.542969 C 17.484375 31.742188 17.78125 31.84375 18.078125 31.84375 C 18.488281 31.84375 18.8125 31.789063 19.054688 31.6875 L 19.054688 33.277344 C 18.777344 33.503906 18.351563 33.617188 17.765625 33.617188 C 17.183594 33.617188 16.660156 33.472656 16.199219 33.1875 C 15.734375 32.902344 15.375 32.527344 15.117188 32.058594 C 14.859375 31.59375 14.738281 31.082031 14.753906 30.527344 C 14.765625 29.925781 14.914063 29.394531 15.210938 28.9375 C 15.507813 28.476563 15.890625 28.125 16.359375 27.875 C 16.832031 27.625 17.335938 27.488281 17.878906 27.464844 C 18.421875 27.441406 18.972656 27.515625 19.539063 27.695313 C 20.105469 27.871094 20.582031 28.167969 20.964844 28.59375 C 21.347656 29.015625 21.539063 29.550781 21.539063 30.203125 Z M 26.277344 27.585938 L 26.277344 29.164063 L 24.6875 29.164063 C 24.441406 29.164063 24.300781 29.242188 24.277344 29.394531 C 24.300781 29.5625 24.441406 29.6875 24.6875 29.769531 C 25.332031 30 25.808594 30.257813 26.125 30.535156 C 26.441406 30.8125 26.605469 31.15625 26.613281 31.566406 C 26.648438 32.257813 26.453125 32.746094 26.027344 33.035156 C 25.601563 33.328125 25.097656 33.472656 24.515625 33.472656 L 22.289063 33.472656 L 22.289063 31.820313 L 24.175781 31.820313 C 24.453125 31.820313 24.589844 31.742188 24.589844 31.589844 C 24.589844 31.429688 24.445313 31.300781 24.152344 31.203125 C 23.808594 31.089844 23.519531 30.96875 23.28125 30.84375 C 23.046875 30.714844 22.84375 30.539063 22.671875 30.316406 C 22.5 30.097656 22.398438 29.804688 22.363281 29.441406 C 22.316406 29.039063 22.449219 28.628906 22.769531 28.210938 C 23.09375 27.792969 23.609375 27.585938 24.328125 27.585938 Z M 29.324219 25.015625 L 29.324219 27.742188 C 29.773438 27.558594 30.191406 27.464844 30.574219 27.464844 C 31.015625 27.464844 31.398438 27.570313 31.71875 27.785156 C 32.039063 27.996094 32.285156 28.277344 32.460938 28.621094 C 32.636719 28.96875 32.722656 29.328125 32.722656 29.695313 L 32.722656 33.472656 L 30.722656 33.472656 L 30.722656 29.984375 C 30.722656 29.761719 30.652344 29.589844 30.507813 29.472656 C 30.359375 29.355469 30.1875 29.296875 29.988281 29.296875 C 29.796875 29.296875 29.636719 29.351563 29.511719 29.460938 C 29.386719 29.570313 29.324219 29.710938 29.324219 29.890625 L 29.324219 33.472656 L 27.324219 33.472656 L 27.324219 25.015625 Z M 34.796875 24.871094 C 35.15625 24.863281 35.449219 24.96875 35.671875 25.183594 C 35.898438 25.402344 36.011719 25.652344 36.011719 25.933594 C 36.019531 26.109375 35.980469 26.285156 35.898438 26.464844 C 35.8125 26.640625 35.6875 26.78125 35.515625 26.886719 C 35.34375 26.988281 35.121094 27.050781 34.847656 27.066406 C 34.539063 27.066406 34.273438 26.960938 34.054688 26.746094 C 33.832031 26.535156 33.714844 26.285156 33.699219 26.003906 C 33.714844 25.988281 33.722656 25.976563 33.722656 25.96875 C 33.722656 25.960938 33.722656 25.957031 33.722656 25.957031 C 33.738281 25.691406 33.847656 25.445313 34.046875 25.222656 C 34.246094 24.996094 34.496094 24.878906 34.796875 24.871094 Z M 35.871094 27.609375 L 35.871094 33.472656 L 33.898438 33.472656 L 33.898438 27.609375 Z M 38.820313 27.609375 L 38.820313 28.597656 C 39.054688 27.859375 39.636719 27.527344 40.570313 27.609375 L 40.570313 29.347656 C 39.96875 29.371094 39.570313 29.460938 39.363281 29.617188 C 39.160156 29.773438 39.058594 30.039063 39.058594 30.40625 L 39.058594 33.472656 L 37.058594 33.472656 L 37.058594 27.609375 Z M 42.667969 27.609375 L 43.53125 31.515625 L 44.332031 27.609375 L 46.382813 27.609375 L 44.945313 32.3125 C 44.683594 33.179688 44.207031 33.617188 43.507813 33.617188 C 42.722656 33.617188 42.226563 33.199219 42.019531 32.363281 L 40.671875 27.609375 Z M 53.429688 33.472656 L 51.429688 33.472656 L 51.429688 30.601563 C 51.429688 30.199219 51.3125 29.867188 51.078125 29.605469 C 50.847656 29.34375 50.492188 29.21875 50.015625 29.226563 C 49.707031 29.226563 49.402344 29.328125 49.097656 29.527344 C 48.792969 29.726563 48.648438 30.0625 48.65625 30.527344 C 48.65625 31.003906 48.796875 31.339844 49.085938 31.542969 C 49.375 31.742188 49.667969 31.84375 49.96875 31.84375 C 50.375 31.84375 50.699219 31.789063 50.941406 31.6875 L 50.941406 33.277344 C 50.667969 33.503906 50.238281 33.617188 49.65625 33.617188 C 49.070313 33.617188 48.546875 33.472656 48.085938 33.1875 C 47.625 32.902344 47.265625 32.527344 47.003906 32.058594 C 46.746094 31.59375 46.625 31.082031 46.644531 30.527344 C 46.652344 29.925781 46.804688 29.394531 47.097656 28.9375 C 47.394531 28.476563 47.777344 28.125 48.25 27.875 C 48.71875 27.625 49.226563 27.488281 49.765625 27.464844 C 50.308594 27.441406 50.863281 27.515625 51.429688 27.695313 C 51.996094 27.871094 52.46875 28.167969 52.851563 28.59375 C 53.238281 29.015625 53.429688 29.550781 53.429688 30.203125 Z M 61.039063 25.015625 L 61.039063 30.503906 C 61.039063 31.527344 60.703125 32.308594 60.039063 32.855469 C 59.355469 33.394531 58.585938 33.664063 57.726563 33.664063 C 57.167969 33.664063 56.648438 33.554688 56.171875 33.332031 C 55.691406 33.109375 55.316406 32.851563 55.039063 32.554688 C 54.824219 32.289063 54.640625 31.964844 54.488281 31.578125 C 54.339844 31.191406 54.261719 30.800781 54.253906 30.40625 C 54.292969 29.5625 54.621094 28.863281 55.226563 28.300781 C 55.835938 27.742188 56.585938 27.464844 57.476563 27.464844 C 57.761719 27.464844 58.09375 27.511719 58.476563 27.609375 L 58.476563 29.371094 C 58.234375 29.257813 57.96875 29.203125 57.675781 29.203125 C 57.269531 29.203125 56.933594 29.324219 56.671875 29.570313 C 56.40625 29.816406 56.265625 30.140625 56.238281 30.550781 C 56.265625 30.929688 56.414063 31.238281 56.683594 31.476563 C 56.953125 31.710938 57.292969 31.84375 57.703125 31.867188 C 58.09375 31.851563 58.417969 31.703125 58.675781 31.421875 C 58.933594 31.140625 59.0625 30.746094 59.0625 30.238281 L 59.0625 25.015625 L 61.039063 25.015625 "/>
<path style=" stroke:none;fill-rule:evenodd;fill:rgb(84.298706%,9.799194%,12.5%);fill-opacity:1;" d="M 15.21875 21.617188 L 60.558594 21.617188 C 64.40625 21.617188 67.554688 24.765625 67.554688 28.613281 L 67.554688 29.914063 C 67.554688 33.761719 64.40625 36.910156 60.558594 36.910156 L 15.21875 36.910156 C 11.367188 36.910156 8.21875 33.761719 8.21875 29.914063 L 8.21875 28.613281 C 8.21875 24.765625 11.367188 21.617188 15.21875 21.617188 Z M 15.21875 22.742188 L 60.558594 22.742188 C 63.789063 22.742188 66.429688 25.382813 66.429688 28.613281 L 66.429688 29.914063 C 66.429688 33.144531 63.789063 35.785156 60.558594 35.785156 L 15.21875 35.785156 C 11.988281 35.785156 9.347656 33.144531 9.347656 29.914063 L 9.347656 28.613281 C 9.347656 25.382813 11.988281 22.742188 15.21875 22.742188 "/>
</g>
</svg>
